<?xml version="1.0" encoding="iso-8859-1"?>
<!-- Generator: Adobe Illustrator 18.1.1, SVG Export Plug-In . SVG Version: 6.00 Build 0)  -->
<svg version="1.1" id="Capa_1" xmlns="http://www.w3.org/2000/svg" xmlns:xlink="http://www.w3.org/1999/xlink" x="0px" y="0px"
	 viewBox="0 0 18.798 18.798" style="enable-background:new 0 0 18.798 18.798;" xml:space="preserve">
<g>
	<g>
		<path style="fill:#030104;" d="M14.181,1.574l-1.819-1.455C12.264,0.042,12.143,0,12.019,0H6.778C6.644,0,6.515,0.049,6.415,0.138
			L4.598,1.756C4.482,1.86,4.415,2.009,4.415,2.164v6.532c0,0.702,0.571,1.273,1.273,1.273h7.424c0.701,0,1.272-0.571,1.272-1.273
			V2.001C14.384,1.835,14.309,1.678,14.181,1.574z M13.294,3.967c0,0.101-0.082,0.182-0.182,0.182H5.688
			c-0.1,0-0.182-0.081-0.182-0.182V2.409l1.481-1.318h4.841l1.465,1.171L13.294,3.967L13.294,3.967z"/>
		<polygon style="fill:#030104;" points="5.755,14.96 6.042,14.96 6.35,18.798 6.94,18.798 7.248,14.96 7.535,14.96 7.535,10.425 
			5.755,10.425 		"/>
		<polygon style="fill:#030104;" points="8.642,14.96 8.929,14.96 9.236,18.798 9.827,18.798 10.135,14.96 10.423,14.96 
			10.423,10.425 8.642,10.425 		"/>
		<polygon style="fill:#030104;" points="11.433,14.96 11.719,14.96 12.027,18.798 12.618,18.798 12.925,14.96 13.213,14.96 
			13.213,10.425 11.433,10.425 		"/>
		<circle style="fill:#030104;" cx="9.399" cy="2.546" r="1.021"/>
	</g>
</g>
<g>
</g>
<g>
</g>
<g>
</g>
<g>
</g>
<g>
</g>
<g>
</g>
<g>
</g>
<g>
</g>
<g>
</g>
<g>
</g>
<g>
</g>
<g>
</g>
<g>
</g>
<g>
</g>
<g>
</g>
</svg>
