<?xml version="1.0" standalone="no"?>
<!DOCTYPE svg PUBLIC "-//W3C//DTD SVG 20010904//EN"
 "http://www.w3.org/TR/2001/REC-SVG-20010904/DTD/svg10.dtd">
<svg version="1.0" xmlns="http://www.w3.org/2000/svg"
 width="600.000000pt" height="600.000000pt" viewBox="0 0 600.000000 600.000000"
 preserveAspectRatio="xMidYMid meet">
<metadata>
Created by potrace 1.15, written by Peter Selinger 2001-2017
</metadata>
<g transform="translate(0.000000,600.000000) scale(0.100000,-0.100000)"
fill="#000000" stroke="none">
<path d="M2771 5989 c-717 -55 -1383 -361 -1891 -869 -870 -870 -1119 -2180
-631 -3315 145 -336 366 -660 631 -925 870 -870 2180 -1119 3315 -631 336 145
660 366 925 631 870 870 1119 2180 631 3315 -145 336 -366 660 -631 925 -619
619 -1476 936 -2349 869z m1264 -897 l60 -7 0 -340 0 -340 -275 -5 c-260 -5
-278 -6 -325 -28 -91 -42 -134 -100 -154 -207 -6 -33 -11 -176 -11 -327 l0
-268 370 0 c349 0 370 -1 370 -18 0 -10 -20 -174 -45 -365 -25 -192 -45 -354
-45 -362 0 -13 -47 -15 -325 -15 l-325 0 0 -960 0 -960 -390 0 -390 0 0 960 0
960 -325 0 -325 0 0 380 0 380 325 0 325 0 0 339 c0 417 14 521 95 697 91 199
265 363 467 438 157 59 224 66 558 61 168 -3 332 -9 365 -13z"/>
</g>
</svg>
