<?xml version="1.0" standalone="no"?>
<!DOCTYPE svg PUBLIC "-//W3C//DTD SVG 20010904//EN"
 "http://www.w3.org/TR/2001/REC-SVG-20010904/DTD/svg10.dtd">
<svg version="1.0" xmlns="http://www.w3.org/2000/svg"
 width="640.000000pt" height="640.000000pt" viewBox="0 0 640.000000 640.000000"
 preserveAspectRatio="xMidYMid meet">
<metadata>
Created by potrace 1.15, written by Peter Selinger 2001-2017
</metadata>
<g transform="translate(0.000000,640.000000) scale(0.100000,-0.100000)"
fill="#000000" stroke="none">
<path d="M2808 5535 c-75 -13 -163 -31 -195 -40 -145 -42 -309 -97 -341 -115
-9 -5 -64 -32 -122 -61 -137 -67 -152 -75 -239 -134 -41 -28 -81 -54 -90 -60
-26 -17 -164 -128 -204 -165 -92 -83 -219 -219 -279 -298 -24 -31 -46 -58 -50
-60 -5 -2 -8 -8 -8 -13 0 -5 -16 -30 -36 -56 -20 -26 -40 -56 -45 -68 -5 -11
-22 -40 -38 -65 -28 -43 -104 -192 -141 -275 -61 -136 -122 -346 -157 -540
-26 -145 -26 -626 0 -770 21 -116 51 -241 73 -305 9 -25 20 -59 24 -76 4 -18
15 -46 24 -64 9 -18 16 -38 16 -43 0 -19 121 -264 161 -327 16 -25 32 -52 36
-60 4 -8 21 -35 38 -59 16 -23 35 -50 40 -60 6 -9 12 -18 15 -21 3 -3 25 -31
49 -62 24 -32 47 -58 52 -58 5 0 9 -5 9 -11 0 -7 10 -22 23 -34 12 -12 52 -53
88 -91 76 -79 119 -118 204 -187 72 -58 87 -69 107 -82 9 -5 36 -24 59 -40 24
-17 51 -34 59 -38 8 -4 35 -20 60 -36 62 -40 308 -161 327 -161 5 0 28 -9 51
-20 22 -11 46 -20 52 -20 6 0 39 -9 73 -20 245 -77 407 -100 698 -100 192 0
246 4 372 25 141 23 175 31 332 77 183 53 442 177 614 293 24 17 51 35 60 40
9 6 18 13 21 16 3 3 31 25 63 48 31 24 57 47 57 52 0 5 5 9 11 9 10 0 36 23
143 130 98 97 126 128 126 139 0 6 4 11 9 11 5 0 26 24 47 53 20 28 42 57 48
62 6 6 16 18 21 26 6 9 23 36 40 60 115 171 239 429 294 614 77 263 94 373 99
664 5 318 -13 452 -99 746 -42 142 -123 327 -208 473 -47 82 -51 89 -86 141
-17 24 -34 51 -40 59 -22 34 -117 152 -165 206 -75 83 -218 217 -298 278 -31
23 -59 45 -62 48 -3 3 -12 10 -21 15 -10 6 -37 24 -60 40 -24 17 -51 34 -59
38 -8 4 -35 20 -60 36 -38 25 -149 81 -265 136 -81 38 -234 89 -370 124 -194
48 -250 54 -540 57 -257 3 -291 1 -417 -21z m741 -200 c80 -14 170 -32 200
-41 102 -30 236 -76 246 -85 5 -5 15 -9 22 -9 18 0 232 -104 278 -135 20 -14
38 -25 40 -25 8 0 100 -64 103 -72 2 -4 8 -8 14 -8 17 0 187 -142 277 -231 89
-90 231 -260 231 -277 0 -6 4 -12 8 -14 8 -3 72 -95 72 -103 0 -2 11 -20 25
-40 31 -46 135 -260 135 -278 0 -7 4 -17 9 -22 24 -26 96 -281 128 -450 26
-143 26 -546 0 -690 -26 -143 -71 -300 -131 -462 -19 -52 -98 -214 -131 -268
-13 -22 -27 -47 -32 -55 -14 -28 -67 -105 -75 -108 -4 -2 -8 -8 -8 -14 0 -17
-141 -186 -232 -276 -90 -91 -259 -232 -276 -232 -6 0 -12 -4 -14 -9 -3 -7
-66 -50 -113 -77 -11 -6 -38 -21 -60 -34 -62 -37 -205 -107 -255 -125 -313
-116 -518 -155 -810 -155 -291 0 -500 40 -807 154 -52 19 -214 98 -268 131
-22 13 -47 27 -55 32 -28 14 -105 67 -108 75 -2 4 -8 8 -14 8 -17 0 -187 142
-277 231 -92 93 -231 259 -231 277 0 6 -4 12 -8 14 -8 3 -72 95 -72 103 0 2
-11 20 -25 40 -30 45 -124 239 -154 320 -13 33 -31 82 -42 109 -10 27 -19 57
-19 66 0 10 -7 36 -15 59 -7 22 -26 110 -40 195 -25 143 -26 172 -23 383 4
229 17 339 55 473 9 30 19 71 23 90 9 40 35 115 62 177 10 24 18 47 18 51 0
15 141 287 151 290 5 2 9 8 9 13 0 19 128 198 210 293 54 63 169 176 179 176
6 0 11 4 11 9 0 17 240 199 300 227 8 4 17 11 20 14 3 4 46 28 95 54 155 81
341 158 425 176 19 4 60 14 90 23 131 38 280 55 500 56 187 1 234 -2 359 -24z"/>
<path d="M2335 4271 c-129 -36 -211 -137 -209 -260 2 -139 116 -250 258 -251
142 0 256 112 256 253 0 69 -31 145 -77 189 -56 53 -165 86 -228 69z"/>
<path d="M2120 2845 l0 -715 23 -5 c12 -3 128 -4 257 -3 l235 3 3 718 2 717
-260 0 -260 0 0 -715z"/>
<path d="M2910 2840 l0 -720 213 2 212 3 6 430 c3 251 10 445 16 467 28 99
109 164 217 175 104 11 202 -59 235 -166 10 -35 15 -152 20 -476 l6 -430 209
-3 c145 -2 213 1 222 9 11 9 14 82 14 398 0 483 -16 676 -64 772 -9 18 -16 36
-16 41 0 4 -14 27 -30 50 -47 64 -121 114 -211 143 -69 22 -98 25 -218 25
-190 0 -280 -29 -378 -124 l-43 -40 0 82 0 82 -205 0 -205 0 0 -720z"/>
</g>
</svg>
