<?xml version="1.0" standalone="no"?>
<!DOCTYPE svg PUBLIC "-//W3C//DTD SVG 20010904//EN"
 "http://www.w3.org/TR/2001/REC-SVG-20010904/DTD/svg10.dtd">
<svg version="1.0" xmlns="http://www.w3.org/2000/svg"
 width="225.000000pt" height="225.000000pt" viewBox="0 0 225.000000 225.000000"
 preserveAspectRatio="xMidYMid meet">
<metadata>
Created by potrace 1.15, written by Peter Selinger 2001-2017
</metadata>
<g transform="translate(0.000000,225.000000) scale(0.100000,-0.100000)"
fill="#000000" stroke="none">
<path d="M952 2035 c-253 -48 -479 -192 -625 -396 -64 -90 -130 -235 -158
-344 -33 -132 -31 -332 4 -465 98 -375 389 -651 767 -726 96 -19 274 -19 370
0 378 75 670 351 767 726 35 133 36 334 4 465 -28 109 -94 254 -158 344 -134
188 -358 337 -580 387 -96 22 -301 26 -391 9z m524 -559 c28 -13 55 -29 58
-35 11 -17 45 -13 108 13 57 23 57 23 47 2 -6 -11 -30 -40 -52 -63 -45 -47
-39 -52 36 -29 44 13 46 13 37 -4 -5 -10 -30 -36 -55 -58 -43 -38 -45 -42 -45
-93 0 -72 -22 -171 -55 -250 -85 -200 -253 -346 -461 -399 -149 -38 -347 -20
-473 44 l-46 24 60 7 c86 11 167 38 227 76 l52 34 -54 12 c-67 15 -125 55
-157 111 l-25 42 56 0 c31 0 56 5 56 10 0 6 -7 10 -15 10 -30 0 -93 40 -124
77 -26 32 -61 114 -61 144 0 5 16 1 35 -7 19 -7 44 -14 56 -14 19 0 18 4 -16
41 -20 23 -43 56 -51 75 -16 39 -19 141 -4 179 l10 27 64 -59 c112 -102 260
-173 399 -189 l52 -6 -3 44 c-15 186 173 313 344 234z"/>
</g>
</svg>
